{"asset": {"version": "2.0", "generator": "twin-lab sample"}, "scene": 0, "scenes": [{"nodes": [0]}], "nodes": [{"mesh": 0, "name": "House"}], "meshes": [{"primitives": [{"attributes": {"POSITION": 0, "NORMAL": 1}, "indices": 2, "material": 0}, {"attributes": {"POSITION": 3, "NORMAL": 4}, "indices": 5, "material": 1}]}], "materials": [{"name": "wall", "pbrMetallicRoughness": {"baseColorFactor": [0.93, 0.85, 0.7, 1], "metallicFactor": 0, "roughnessFactor": 0.8}}, {"name": "roof", "pbrMetallicRoughness": {"baseColorFactor": [0.75, 0.2, 0.15, 1], "metallicFactor": 0, "roughnessFactor": 0.6}}], "accessors": [{"bufferView": 0, "componentType": 5126, "count": 24, "type": "VEC3", "min": [-0.5, 0, -0.5], "max": [0.5, 0.8, 0.5]}, {"bufferView": 1, "componentType": 5126, "count": 24, "type": "VEC3"}, {"bufferView": 2, "componentType": 5123, "count": 36, "type": "SCALAR"}, {"bufferView": 3, "componentType": 5126, "count": 12, "type": "VEC3", "min": [-0.7, 0.8, -0.7], "max": [0.7, 1.4, 0.7]}, {"bufferView": 4, "componentType": 5126, "count": 12, "type": "VEC3"}, {"bufferView": 5, "componentType": 5123, "count": 12, "type": "SCALAR"}], "bufferViews": [{"buffer": 0, "byteOffset": 0, "byteLength": 288, "target": 34962}, {"buffer": 0, "byteOffset": 288, "byteLength": 288, "target": 34962}, {"buffer": 0, "byteOffset": 576, "byteLength": 72, "target": 34963}, {"buffer": 0, "byteOffset": 648, "byteLength": 144, "target": 34962}, {"buffer": 0, "byteOffset": 792, "byteLength": 144, "target": 34962}, {"buffer": 0, "byteOffset": 936, "byteLength": 24, "target": 34963}], "buffers": [{"byteLength": 960, "uri": "data:application/octet-stream;base64,"}]}